<svg width="17" height="18" viewBox="0 0 17 18" fill="none" xmlns="http://www.w3.org/2000/svg">
<path d="M12.0863 8.78356L7.2845 14.061L4.86659 11.2458C4.64302 10.9854 4.26246 10.9663 4.01656 11.2031C3.77071 11.4398 3.75265 11.8427 3.97624 12.1031L6.70371 15.2787C6.82248 15.417 6.98543 15.4872 7.14905 15.4872C7.20031 15.4872 7.25162 15.4801 7.30164 15.4663C7.33781 15.4733 7.3745 15.4769 7.41128 15.4769C7.56903 15.4769 7.72658 15.4116 7.84469 15.2819L12.9529 9.66762C13.1835 9.41424 13.1764 9.0109 12.9371 8.76677C12.6977 8.52265 12.3168 8.53015 12.0863 8.78356V8.78356ZM15.7082 2.59076H13.3063V0.654424C13.3063 0.302559 13.0369 0.0173035 12.7046 0.0173035C12.3723 0.0173035 12.1029 0.302539 12.1029 0.654424V2.59078H4.81473V0.664435C4.81473 0.31257 4.54534 0.0273149 4.213 0.0273149C3.88069 0.0273149 3.61128 0.31255 3.61128 0.664435V2.59076H1.25393C0.562501 2.59076 0 3.18736 0 3.92068V16.6417C0 17.375 0.562501 17.9716 1.25393 17.9716H15.7082C16.3996 17.9716 16.9622 17.375 16.9622 16.6417V3.92068C16.9622 3.18738 16.3996 2.59076 15.7082 2.59076V2.59076ZM1.25393 3.86292H15.7082C15.7371 3.86292 15.7606 3.88886 15.7606 3.92068V6.43335H1.2015V3.92068C1.2015 3.88886 1.22501 3.86292 1.25393 3.86292V3.86292ZM15.7082 16.6994H1.25393C1.22499 16.6994 1.20148 16.6735 1.20148 16.6417V7.70759H15.7606V16.6417C15.7606 16.6735 15.7371 16.6994 15.7082 16.6994V16.6994Z" fill="white"/>
</svg>
