<svg width="17" height="17" viewBox="0 0 17 17" fill="none" xmlns="http://www.w3.org/2000/svg">
<path d="M17 3.4V15.3C17 15.7509 16.8209 16.1833 16.5021 16.5021C16.1833 16.8209 15.7509 17 15.3 17H1.7C1.24913 17 0.81673 16.8209 0.497918 16.5021C0.179107 16.1833 0 15.7509 0 15.3V1.13333C0 0.832755 0.119404 0.544487 0.331946 0.331946C0.544487 0.119404 0.832755 0 1.13333 0H15.8667C16.1672 0 16.4555 0.119404 16.6681 0.331946C16.8806 0.544487 17 0.832755 17 1.13333V3.4ZM12.3375 9.39477C12.1353 10.2649 11.6455 11.0413 10.9473 11.5985C10.2491 12.1557 9.38336 12.461 8.49009 12.4651C7.59682 12.4692 6.7283 12.1717 6.02506 11.6209C5.32181 11.0701 4.82498 10.2981 4.61493 9.4299C4.81912 9.28749 4.97073 9.08181 5.04636 8.84464C5.12198 8.60746 5.11742 8.35199 5.03336 8.11766C4.94931 7.88334 4.79044 7.68322 4.5813 7.54819C4.37216 7.41317 4.12438 7.35076 3.87623 7.37061C3.62808 7.39046 3.39337 7.49145 3.20835 7.658C3.02333 7.82455 2.89829 8.04738 2.85255 8.29209C2.80681 8.53679 2.84291 8.78974 2.95527 9.01188C3.06763 9.23402 3.25001 9.41299 3.47423 9.52113C3.9474 11.8484 6.00497 13.6 8.47223 13.6C10.9293 13.6 12.9806 11.862 13.4646 9.54833C13.695 9.45342 13.8878 9.28517 14.013 9.06964C14.1382 8.85411 14.1888 8.60333 14.1571 8.3561C14.1254 8.10888 14.013 7.87901 13.8374 7.70209C13.6619 7.52517 13.4329 7.41106 13.1859 7.37742C12.9389 7.34379 12.6878 7.39251 12.4713 7.51604C12.2548 7.63958 12.0851 7.83103 11.9884 8.06077C11.8917 8.2905 11.8735 8.5457 11.9365 8.78686C11.9995 9.02802 12.1402 9.24168 12.3369 9.39477H12.3375ZM15.8667 3.4V1.7C15.8667 1.54971 15.807 1.40558 15.7007 1.29931C15.5944 1.19304 15.4503 1.13333 15.3 1.13333H1.7C1.54971 1.13333 1.40558 1.19304 1.29931 1.29931C1.19304 1.40558 1.13333 1.54971 1.13333 1.7V3.4H15.8667ZM15.8667 4.53333H1.13333V15.3C1.13333 15.4503 1.19304 15.5944 1.29931 15.7007C1.40558 15.807 1.54971 15.8667 1.7 15.8667H15.3C15.4503 15.8667 15.5944 15.807 15.7007 15.7007C15.807 15.5944 15.8667 15.4503 15.8667 15.3V4.53333Z" fill="white"/>
</svg>
