<svg width="17" height="17" viewBox="0 0 17 17" fill="none" xmlns="http://www.w3.org/2000/svg">
<path d="M15.9032 7.70312C15.9032 9.23313 14.1742 10.3031 11.6554 10.8147L10.9804 11.6716C10.6154 12.1336 10.4181 12.6995 10.4194 13.2812C10.4194 13.6611 10.5016 14.0282 10.6574 14.3661L11.2847 15.7223L9.7569 15.8583C9.1567 15.9114 8.55431 15.9378 7.95161 15.9375C3.58535 15.9375 0 14.6869 0 12.4844C0 11.4516 0.747452 10.6664 1.97694 10.0969C0.748548 9.51681 0 8.70931 0 7.70312C0 6.82337 0.555516 6.12106 1.47516 5.58078C0.546742 5.02881 0 4.31375 0 3.45312C0 1.25056 3.58535 0 7.95161 0C12.3179 0 15.9032 1.25056 15.9032 3.45312C15.9032 4.31375 15.3565 5.02828 14.4292 5.58078C15.351 6.12106 15.9032 6.82231 15.9032 7.70312ZM14.8065 3.45312C14.8065 2.13297 11.7377 1.0625 7.95161 1.0625C4.16555 1.0625 1.09677 2.13297 1.09677 3.45312C1.09677 4.75788 4.09426 5.81878 7.81836 5.84375C9.42403 5.83313 10.9409 5.65091 12.1874 5.33269C13.7821 4.89494 14.8065 4.216 14.8065 3.45312ZM7.95161 6.90625H7.67742C5.71419 6.90625 3.91219 6.66187 2.49845 6.25441C1.61884 6.65656 1.09677 7.15859 1.09677 7.70312C1.09677 9.00788 4.09426 10.0688 7.81836 10.0938C8.54213 10.0899 9.26518 10.049 9.98448 9.97103L10.7341 9.88869C13.1333 9.51681 14.8065 8.67797 14.8065 7.70312C14.8065 7.11344 14.1939 6.57369 13.1788 6.15666L13.0225 6.20553C11.6423 6.664 9.87261 6.90625 7.95161 6.90625ZM7.67742 11.1562C6.08381 11.1562 4.59658 10.9953 3.33639 10.7169C1.95994 11.1541 1.09677 11.7842 1.09677 12.4844C1.09677 13.8045 4.16555 14.875 7.95161 14.875C8.54003 14.875 9.11145 14.849 9.65655 14.8006C9.43566 14.3227 9.32184 13.8049 9.32258 13.2812C9.32258 12.444 9.60774 11.6716 10.0903 11.05C9.33474 11.1267 8.57531 11.1622 7.81561 11.1562H7.67742ZM13.1613 17C12.1432 17 11.1668 16.6082 10.4469 15.9108C9.72702 15.2134 9.32258 14.2675 9.32258 13.2812C9.32258 12.295 9.72702 11.3491 10.4469 10.6517C11.1668 9.9543 12.1432 9.5625 13.1613 9.5625C14.1794 9.5625 15.1558 9.9543 15.8757 10.6517C16.5956 11.3491 17 12.295 17 13.2812C17 14.2675 16.5956 15.2134 15.8757 15.9108C15.1558 16.6082 14.1794 17 13.1613 17ZM13.1613 15.9375C13.8885 15.9375 14.5859 15.6576 15.1001 15.1595C15.6143 14.6614 15.9032 13.9857 15.9032 13.2812C15.9032 12.5768 15.6143 11.9011 15.1001 11.403C14.5859 10.9049 13.8885 10.625 13.1613 10.625C12.4341 10.625 11.7367 10.9049 11.2224 11.403C10.7082 11.9011 10.4194 12.5768 10.4194 13.2812C10.4194 13.9857 10.7082 14.6614 11.2224 15.1595C11.7367 15.6576 12.4341 15.9375 13.1613 15.9375V15.9375ZM12.0645 12.75H14.2581C14.4035 12.75 14.543 12.806 14.6458 12.9056C14.7487 13.0052 14.8065 13.1404 14.8065 13.2812C14.8065 13.4221 14.7487 13.5573 14.6458 13.6569C14.543 13.7565 14.4035 13.8125 14.2581 13.8125H12.0645C11.9191 13.8125 11.7796 13.7565 11.6767 13.6569C11.5739 13.5573 11.5161 13.4221 11.5161 13.2812C11.5161 13.1404 11.5739 13.0052 11.6767 12.9056C11.7796 12.806 11.9191 12.75 12.0645 12.75Z" fill="white"/>
</svg>
