<svg width="17" height="18" viewBox="0 0 17 18" fill="none" xmlns="http://www.w3.org/2000/svg">
<path d="M3.98104 1.2H1.82143C1.6604 1.2 1.50598 1.26321 1.39211 1.37574C1.27825 1.48826 1.21429 1.64087 1.21429 1.8V16.2C1.21429 16.3591 1.27825 16.5117 1.39211 16.6243C1.50598 16.7368 1.6604 16.8 1.82143 16.8H15.1786C15.3396 16.8 15.494 16.7368 15.6079 16.6243C15.7217 16.5117 15.7857 16.3591 15.7857 16.2V1.8C15.7857 1.64087 15.7217 1.48826 15.6079 1.37574C15.494 1.26321 15.3396 1.2 15.1786 1.2H12.9734L12.2625 2.6052C12.1112 2.90412 11.8786 3.15552 11.5909 3.33122C11.3032 3.50692 10.9717 3.59999 10.6335 3.6H6.154C5.78309 3.60011 5.42099 3.48831 5.11611 3.27955C4.81124 3.07079 4.57812 2.77502 4.44793 2.4318L3.98104 1.2ZM1.21429 0H15.7857C16.1078 0 16.4166 0.126428 16.6443 0.351472C16.8721 0.576516 17 0.88174 17 1.2V16.8C17 17.1183 16.8721 17.4235 16.6443 17.6485C16.4166 17.8736 16.1078 18 15.7857 18H1.21429C0.892237 18 0.583379 17.8736 0.355656 17.6485C0.127933 17.4235 0 17.1183 0 16.8V1.2C0 0.88174 0.127933 0.576516 0.355656 0.351472C0.583379 0.126428 0.892237 0 1.21429 0V0ZM5.27789 1.2L5.58511 2.0106C5.62852 2.12504 5.70625 2.22365 5.80792 2.29324C5.90958 2.36283 6.03033 2.40008 6.154 2.4H10.6335C10.7462 2.39994 10.8567 2.36887 10.9526 2.31027C11.0484 2.25167 11.1259 2.16785 11.1763 2.0682L11.6159 1.2H5.27729H5.27789Z" fill="white"/>
<path d="M7.21178 6.7616L8.92903 8.45866C9.21524 8.7415 9.21524 9.02434 8.92903 9.30719C8.64282 9.59003 8.35661 9.59003 8.0704 9.30719L6.35315 7.61013C6.06694 7.32729 6.06694 7.04444 6.35315 6.7616C6.63936 6.47876 6.92557 6.47876 7.21178 6.7616V6.7616Z" fill="white"/>
<path d="M9.78775 6.76185L8.07049 8.4589C7.78428 8.74174 7.78428 9.02459 8.07049 9.30743C8.3567 9.59027 8.64291 9.59027 8.92912 9.30743L10.6464 7.61037C10.9326 7.32753 10.9326 7.04469 10.6464 6.76185C10.3602 6.479 10.074 6.479 9.78775 6.76185V6.76185Z" fill="white"/>
<path d="M6.07144 9.0018H10.9286C11.3333 9.0018 11.5357 9.2018 11.5357 9.6018C11.5357 10.0018 11.3333 10.2018 10.9286 10.2018H6.07144C5.66668 10.2018 5.46429 10.0018 5.46429 9.6018C5.46429 9.2018 5.66668 9.0018 6.07144 9.0018Z" fill="white"/>
<path d="M6.07144 11.4018H10.9286C11.3333 11.4018 11.5357 11.6018 11.5357 12.0018C11.5357 12.4018 11.3333 12.6018 10.9286 12.6018H6.07144C5.66668 12.6018 5.46429 12.4018 5.46429 12.0018C5.46429 11.6018 5.66668 11.4018 6.07144 11.4018Z" fill="white"/>
<path d="M8.49997 8.40176C8.90473 8.40176 9.10711 8.60176 9.10711 9.00176V13.8018C9.10711 14.2018 8.90473 14.4018 8.49997 14.4018C8.0952 14.4018 7.89282 14.2018 7.89282 13.8018V9.00176C7.89282 8.60176 8.0952 8.40176 8.49997 8.40176Z" fill="white"/>
</svg>
