<svg width="17" height="17" viewBox="0 0 17 17" fill="none" xmlns="http://www.w3.org/2000/svg">
<path d="M3.13968 2.83344H16.4519C16.533 2.83349 16.6131 2.85213 16.6864 2.88801C16.7597 2.9239 16.8244 2.97613 16.8758 3.04095C16.9272 3.10578 16.964 3.18157 16.9837 3.26288C17.0033 3.34419 17.0053 3.42899 16.9894 3.51117L15.8926 9.17779C15.8677 9.3062 15.8006 9.42176 15.7026 9.50482C15.6047 9.58788 15.4819 9.63331 15.3551 9.63339H4.15695L4.31434 10.7667H14.8068C14.9522 10.7667 15.0917 10.8264 15.1945 10.9327C15.2974 11.039 15.3551 11.1831 15.3551 11.3334C15.3551 11.4837 15.2974 11.6278 15.1945 11.7341C15.0917 11.8403 14.9522 11.9 14.8068 11.9H3.83888C3.70684 11.9 3.57922 11.8508 3.47949 11.7614C3.37975 11.672 3.31459 11.5484 3.29597 11.4133C2.56935 6.15805 2.11144 3.13094 1.93596 2.40448C1.80544 1.86445 1.31079 1.42642 0.375227 1.10455C0.237202 1.05706 0.123087 0.954861 0.0579868 0.82043C-0.00711335 0.685998 -0.0178661 0.530351 0.0280939 0.387727C0.0740539 0.245104 0.172962 0.127187 0.303059 0.0599185C0.433157 -0.00735033 0.583786 -0.0184613 0.721812 0.0290298C1.97983 0.462526 2.76458 1.15782 2.99984 2.12908C3.03658 2.28095 3.0832 2.51498 3.13968 2.83344ZM3.37878 3.96677L4.03685 8.50007H14.906L15.7834 3.96677H3.37823H3.37878ZM4.11308 17C3.86102 17 3.61143 16.9487 3.37856 16.849C3.14569 16.7494 2.9341 16.6033 2.75587 16.4191C2.57764 16.2349 2.43626 16.0163 2.3398 15.7757C2.24335 15.535 2.1937 15.2771 2.1937 15.0167C2.1937 14.7562 2.24335 14.4983 2.3398 14.2577C2.43626 14.0171 2.57764 13.7984 2.75587 13.6143C2.9341 13.4301 3.14569 13.284 3.37856 13.1843C3.61143 13.0847 3.86102 13.0334 4.11308 13.0334C4.62213 13.0334 5.11033 13.2423 5.47028 13.6143C5.83024 13.9862 6.03246 14.4907 6.03246 15.0167C6.03246 15.5427 5.83024 16.0472 5.47028 16.4191C5.11033 16.791 4.62213 17 4.11308 17V17ZM4.11308 15.8667C4.33124 15.8667 4.54047 15.7771 4.69474 15.6177C4.849 15.4583 4.93567 15.2421 4.93567 15.0167C4.93567 14.7913 4.849 14.5751 4.69474 14.4156C4.54047 14.2562 4.33124 14.1667 4.11308 14.1667C3.89491 14.1667 3.68568 14.2562 3.53142 14.4156C3.37715 14.5751 3.29049 14.7913 3.29049 15.0167C3.29049 15.2421 3.37715 15.4583 3.53142 15.6177C3.68568 15.7771 3.89491 15.8667 4.11308 15.8667V15.8667ZM13.9842 17C13.7321 17 13.4825 16.9487 13.2497 16.849C13.0168 16.7494 12.8052 16.6033 12.627 16.4191C12.4487 16.2349 12.3073 16.0163 12.2109 15.7757C12.1144 15.535 12.0648 15.2771 12.0648 15.0167C12.0648 14.7562 12.1144 14.4983 12.2109 14.2577C12.3073 14.0171 12.4487 13.7984 12.627 13.6143C12.8052 13.4301 13.0168 13.284 13.2497 13.1843C13.4825 13.0847 13.7321 13.0334 13.9842 13.0334C14.4932 13.0334 14.9814 13.2423 15.3414 13.6143C15.7013 13.9862 15.9035 14.4907 15.9035 15.0167C15.9035 15.5427 15.7013 16.0472 15.3414 16.4191C14.9814 16.791 14.4932 17 13.9842 17V17ZM13.9842 15.8667C14.2023 15.8667 14.4116 15.7771 14.5658 15.6177C14.7201 15.4583 14.8068 15.2421 14.8068 15.0167C14.8068 14.7913 14.7201 14.5751 14.5658 14.4156C14.4116 14.2562 14.2023 14.1667 13.9842 14.1667C13.766 14.1667 13.5568 14.2562 13.4025 14.4156C13.2482 14.5751 13.1616 14.7913 13.1616 15.0167C13.1616 15.2421 13.2482 15.4583 13.4025 15.6177C13.5568 15.7771 13.766 15.8667 13.9842 15.8667V15.8667Z" fill="white"/>
</svg>
