<svg width="17" height="17" viewBox="0 0 17 17" fill="none" xmlns="http://www.w3.org/2000/svg">
<path d="M13.5 12.3598V13.677C13.5 14.3078 13.2629 14.9128 12.841 15.3589C12.419 15.805 11.8467 16.0556 11.25 16.0556H2.25C1.65326 16.0556 1.08097 15.805 0.65901 15.3589C0.237053 14.9128 0 14.3078 0 13.677V12.3598C0.996549 10.6105 2.56514 9.30812 4.40887 8.69914C3.91338 8.31237 3.51077 7.80796 3.23348 7.22654C2.95619 6.64513 2.81199 6.00298 2.8125 5.35185V4.16255C2.8125 3.61592 2.91435 3.07464 3.11222 2.56961C3.3101 2.06459 3.60014 1.60571 3.96577 1.21918C4.3314 0.832654 4.76546 0.526043 5.24318 0.316855C5.7209 0.107668 6.23292 0 6.75 0C7.26708 0 7.7791 0.107668 8.25682 0.316855C8.73454 0.526043 9.1686 0.832654 9.53423 1.21918C9.89986 1.60571 10.1899 2.06459 10.3878 2.56961C10.5857 3.07464 10.6875 3.61592 10.6875 4.16255V5.35185C10.688 6.00298 10.5438 6.64513 10.2665 7.22654C9.98923 7.80796 9.58662 8.31237 9.09113 8.69914C10.9349 9.30812 12.5035 10.6105 13.5 12.3598ZM6.75 1.1893C6.00408 1.1893 5.28871 1.50255 4.76126 2.06015C4.23382 2.61774 3.9375 3.374 3.9375 4.16255V5.35185C3.9375 6.14041 4.23382 6.89666 4.76126 7.45426C5.28871 8.01185 6.00408 8.3251 6.75 8.3251C7.49592 8.3251 8.21129 8.01185 8.73874 7.45426C9.26618 6.89666 9.5625 6.14041 9.5625 5.35185V4.16255C9.5625 3.374 9.26618 2.61774 8.73874 2.06015C8.21129 1.50255 7.49592 1.1893 6.75 1.1893ZM11.9375 2.3786H16.4375C16.5867 2.3786 16.7298 2.44125 16.8352 2.55277C16.9407 2.66429 17 2.81554 17 2.97325C17 3.13096 16.9407 3.28221 16.8352 3.39373C16.7298 3.50525 16.5867 3.5679 16.4375 3.5679H11.9375C11.7883 3.5679 11.6452 3.50525 11.5398 3.39373C11.4343 3.28221 11.375 3.13096 11.375 2.97325C11.375 2.81554 11.4343 2.66429 11.5398 2.55277C11.6452 2.44125 11.7883 2.3786 11.9375 2.3786ZM13.0625 7.1358H16.4375C16.5867 7.1358 16.7298 7.19845 16.8352 7.30997C16.9407 7.42149 17 7.57274 17 7.73045C17 7.88816 16.9407 8.03941 16.8352 8.15093C16.7298 8.26245 16.5867 8.3251 16.4375 8.3251H13.0625C12.9133 8.3251 12.7702 8.26245 12.6648 8.15093C12.5593 8.03941 12.5 7.88816 12.5 7.73045C12.5 7.57274 12.5593 7.42149 12.6648 7.30997C12.7702 7.19845 12.9133 7.1358 13.0625 7.1358ZM14.75 11.893H16.4375C16.5867 11.893 16.7298 11.9557 16.8352 12.0672C16.9407 12.1787 17 12.3299 17 12.4877C17 12.6454 16.9407 12.7966 16.8352 12.9081C16.7298 13.0197 16.5867 13.0823 16.4375 13.0823H14.75C14.6008 13.0823 14.4577 13.0197 14.3523 12.9081C14.2468 12.7966 14.1875 12.6454 14.1875 12.4877C14.1875 12.3299 14.2468 12.1787 14.3523 12.0672C14.4577 11.9557 14.6008 11.893 14.75 11.893ZM6.75 9.5144C6.08062 9.5144 5.41181 9.62144 4.743 9.83492C3.26147 10.3245 1.98412 11.3374 1.125 12.7041V13.677C1.125 13.9924 1.24353 14.2949 1.4545 14.5179C1.66548 14.741 1.95163 14.8663 2.25 14.8663H11.25C11.5484 14.8663 11.8345 14.741 12.0455 14.5179C12.2565 14.2949 12.375 13.9924 12.375 13.677V12.7041C11.5159 11.3374 10.2385 10.3245 8.757 9.83492C8.10657 9.62423 7.43028 9.51622 6.75 9.5144Z" fill="white"/>
</svg>
